# AST/ASF file generated using VICON BodyLanguage
# -----------------------------------------------
:version 1.10
:name VICON
:units
  mass 1.0
  length 0.45
  angle deg
:documentation
   .ast/.asf automatically generated from VICON data using
   VICON BodyBuilder and BodyLanguage model FoxedUp or BRILLIANT.MOD
:root
   order TX TY TZ RX RY RZ
   axis XYZ
   position 0 0 0  
   orientation 0 0 0 
:bonedata
  begin
     id 1 
     name lhipjoint
     direction 0.714689 -0.624256 0.315473 
     length 2.45343 
     axis 0 0 0  XYZ
  end
  begin
     id 2 
     name lfemur
     direction 0.34202 -0.939693 0  
     length 6.59069  
     axis 0 0 20  XYZ
    dof rx ry rz
    limits (-160.0 20.0)
           (-70.0 70.0)
           (-60.0 70.0)
  end
  begin
     id 3 
     name ltibia
     direction 0.34202 -0.939693 0   
     length 6.73476   
     axis 0 0 20   XYZ
    dof rx
    limits (-10.0 170.0)
  end
  begin
     id 4 
     name lfoot
     direction 0.0718085 -0.197292 0.977711   
     length 1.52607   
     axis -90 7.62852e-016 20   XYZ
    dof rx rz
    limits (-45.0 90.0)
           (-70.0 20.0)
  end
  begin
     id 5 
     name ltoes
     direction 1.53553e-011 -4.22024e-011 1   
     length 0.777832   
     axis -90 7.62852e-016 20   XYZ
    dof rx
    limits (-90.0 20.0)
  end
  begin
     id 6 
     name rhipjoint
     direction -0.727419 -0.612432 0.309497   
     length 2.50079  
     axis 0 0 0  XYZ 
  end
  begin
     id 7 
     name rfemur
     direction -0.34202 -0.939693 0   
     length 6.51665   
     axis 0 0 -20   XYZ
    dof rx ry rz
    limits (-160.0 20.0)
           (-70.0 70.0)
           (-70.0 60.0)
  end
  begin
     id 8 
     name rtibia
     direction -0.34202 -0.939693 0   
     length 6.48919   
     axis 0 0 -20   XYZ
    dof rx
    limits (-10.0 170.0)
 end
 begin
     id 9 
     name rfoot
     direction -0.112205 -0.308282 0.944655   
     length 1.68717  
     axis -90 -7.62852e-016 -20   XYZ
    dof rx rz
    limits (-45.0 90.0)
           (-20.0 70.0)
  end
  begin
     id 10 
     name rtoes
     direction -1.53583e-011 -4.21993e-011 1   
     length 0.846859   
     axis -90 -7.62852e-016 -20   XYZ
    dof rx
    limits (-90.0 20.0)
  end
  begin
     id 11 
     name lowerback
     direction -0.00119603 0.996364 -0.0851956   
     length 1.67242   
     axis 0 0 0   XYZ
    dof rx ry rz
    limits (-20.0 45.0)
           (-30.0 30.0)
           (-30.0 30.0)
  end
  begin
     id 12 
     name upperback
     direction -0.00531001 0.998318 0.0577248   
     length 1.64819   
     axis 0 0 0   XYZ
    dof rx ry rz
    limits (-20.0 45.0)
           (-30.0 30.0)
           (-30.0 30.0)
  end
  begin
     id 13 
     name thorax
     direction -0.00653676 0.995132 0.0983291   
     length 1.67429   
     axis 0 0 0   XYZ
    dof rx ry rz
    limits (-20.0 45.0)
           (-30.0 30.0)
           (-30.0 30.0)
  end
  begin
     id 14 
     name lowerneck
     direction 0.0141424 0.999886 0.00525412   
     length 1.59623   
     axis 0 0 0   XYZ
    dof rx ry rz
    limits (-20.0 45.0)
           (-30.0 30.0)
           (-30.0 30.0)
  end
  begin
     id 15 
     name upperneck
     direction -0.0640064 0.987178 -0.146232   
     length 1.59576   
     axis 0 0 0   XYZ
    dof rx ry rz
    limits (-20.0 45.0)
           (-30.0 30.0)
           (-30.0 30.0)
  end
  begin
     id 16
     name head
     direction -0.0222942 0.998496 -0.0500859  
     length 1.60959  
     axis 0 0 0   XYZ
    dof rx ry rz
    limits (-20.0 45.0)
           (-30.0 30.0)
           (-30.0 30.0)
  end
  begin
     id 17 
     name lclavicle
     direction 0.908549 0.392612 0.142806  
     length 2.80649  
     axis 0 0 0   XYZ
    dof ry rz
    limits (-20.0 10.0)
           (0.0 20.0)
  end
  begin
     id 18 
     name lhumerus
     direction 1 -4.48968e-011 1.08832e-028   
     length 4.2884   
     axis -180 -30 -90   XYZ
    dof rx ry rz
    limits (-60.0 90.0)
           (-90.0 90.0)
           (-90.0 90.0)
  end
  begin
     id 19
     name lradius
     direction 1 -4.48952e-011 -3.02642e-028   
     length 3.06552   
     axis -180 -30 -90   XYZ
    dof rx
    limits (-10.0 170.0)
  end
  begin
     id 20
     name lwrist
     direction 1 -4.49014e-011 1.58672e-027   
     length 1.53276   
     axis -1.65735e-015 90 90   XYZ
    dof ry
    limits (-180.0 0.0)
 end
  begin
     id 21 
     name lhand
     direction 1 -4.48928e-011 3.17344e-027   
     length 0.753045   
     axis -2.02492e-015 90 90   XYZ
    dof rx rz
    limits (-90.0 90.0)
           (-45.0 45.0)
  end
  begin
     id 22 
     name lfingers
     direction 1 -4.48958e-011 6.34687e-027   
     length 0.607124   
     axis -4.04985e-015 90 90   XYZ
    dof rx
    limits (0.0 90.0)
  end
  begin
     id 23
     name lthumb
     direction 0.707107 -6.34905e-011 0.707107   
     length 0.871712   
     axis -90 45 2.85299e-015   XYZ
    dof rx rz
    limits (-45.0 45.0)
           (-45.0 45.0)
  end
  begin
     id 24 
     name rclavicle
     direction -0.885098 0.45949 0.0739604   
     length 2.9478  
     axis 0 0 0   XYZ 
    dof ry rz
    limits (-10.0 20.0)
           (-20.0 0.0)
  end
  begin
     id 25 
     name rhumerus
     direction -1 -4.4898e-011 -2.61739e-027  
     length 4.52172   
     axis -180 30 90   XYZ
    dof rx ry rz
    limits (-90.0 60.0)
           (-90.0 90.0)
           (-90.0 90.0)
  end
  begin
     id 26 
     name rradius
     direction -1 -4.48945e-011 9.02552e-028   
     length 2.8914   
     axis -180 30 90   XYZ
    dof rx
    limits (-10.0 170.0)
  end
  begin
     id 27 
     name rwrist
     direction -1 -4.49018e-011 1.58672e-027   
     length 1.4457   
     axis -1.65735e-015 -90 -90   XYZ
    dof ry
    limits (-180.0 0.0)
  end
  begin
     id 28
     name rhand
     direction -1 -4.48825e-011 3.17344e-027   
     length 0.680541   
     axis -2.02492e-015 -90 -90   XYZ
    dof rx rz
    limits (-90.0 90.0)
           (-45.0 45.0)
  end
  begin
     id 29
     name rfingers
     direction -1 -4.49067e-011 6.34687e-027   
     length 0.54867   
     axis -4.04985e-015 -90 -90   XYZ
    dof rx
    limits (0.0 90.0)
  end
  begin
     id 30
     name rthumb
     direction -0.707107 -6.34833e-011 0.707107   
     length 0.787783   
     axis -90 -45 -2.85299e-015   XYZ
    dof rx rz
    limits (-45.0 45.0)
           (-45.0 45.0)
  end
:hierarchy
  begin
    root lhipjoint rhipjoint lowerback
    lhipjoint lfemur
    lfemur ltibia
    ltibia lfoot
    lfoot ltoes
    rhipjoint rfemur
    rfemur rtibia
    rtibia rfoot
    rfoot rtoes
    lowerback upperback
    upperback thorax
    thorax lowerneck lclavicle rclavicle
    lowerneck upperneck
    upperneck head
    lclavicle lhumerus
    lhumerus lradius
    lradius lwrist
    lwrist lhand lthumb
    lhand lfingers
    rclavicle rhumerus
    rhumerus rradius
    rradius rwrist
    rwrist rhand rthumb
    rhand rfingers
  end

#!OML:ASF E:\emotionWalksFemale\Project 1\Capture day 1\Session 1\Female1.ASF
:FULLY-SPECIFIED
:DEGREES
195
root 10.054 15.6296 -0.0699932 5.08446 -0.0966297 0.183345
lowerback 11.4464 1.10001 0.527118
upperback -3.40653 1.53537 -0.221117
thorax -10.0872 0.696206 -0.841335
lowerneck -7.41922 -3.18759 -5.90022
upperneck 9.45146 -4.0438 4.15159
head 4.24491 -1.97995 1.99208
rclavicle -3.75517e-015 -2.48481e-016
rhumerus -39.3736 18.4251 -95.8905
rradius 39.3549
rwrist 22.7741
rhand -7.57716 -52.9872
rfingers 7.12502
rthumb 18.3157 -82.1449
lclavicle -3.75517e-015 -2.48481e-016
lhumerus -37.0608 -5.94071 88.8829
lradius 33.0166
lwrist -15.0256
lhand -5.11456 -38.1595
lfingers 7.12502
lthumb 20.6833 -9.24167
rfemur -11.7681 8.82065 26.1143
rtibia 26.228
rfoot -16.6259 -22.853
rtoes 5.36414
lfemur -17.4777 -8.34541 -23.4349
ltibia 33.0561
lfoot -19.8828 9.67652
ltoes -31.6862
196
root 10.0547 15.6487 -0.0524348 5.17092 -0.0686681 0.168541
lowerback 11.2706 1.05502 0.711073
upperback -3.55442 1.4993 -0.261786
thorax -10.1418 0.665155 -0.979692
lowerneck -7.241 -3.15774 -5.90888
upperneck 9.44518 -4.02456 4.26161
head 4.2146 -1.96708 2.03113
rclavicle -7.94828e-015 4.37326e-015
rhumerus -39.7406 18.6768 -96.2285
rradius 39.4781
rwrist 22.4752
rhand -7.68417 -52.8688
rfingers 7.12502
rthumb 18.2127 -82.0361
lclavicle -7.94828e-015 4.37326e-015
lhumerus -37.312 -6.12983 88.9558
lradius 32.8631
lwrist -15.0191
lhand -4.85714 -37.9106
lfingers 7.12502
lthumb 20.9307 -9.01982
rfemur -10.9795 9.11081 26.1198
rtibia 24.7035
rfoot -16.0052 -23.1666
rtoes 4.49324
lfemur -16.7553 -8.96934 -23.383
ltibia 31.85
lfoot -19.6513 10.1359
ltoes -31.6419
197
root 10.0556 15.668 -0.0357444 5.33399 -0.0773186 0.220217
lowerback 11.0097 1.06252 0.776551
upperback -3.73195 1.51333 -0.316948
thorax -10.1807 0.665059 -1.07516
lowerneck -6.96246 -3.15709 -5.96291
upperneck 9.43804 -4.04604 4.38075
head 4.17058 -1.97671 2.07914
rclavicle -4.83295e-015 5.01931e-015
rhumerus -40.091 18.7148 -96.4741
rradius 39.5391
rwrist 22.1833
rhand -7.77682 -52.814
rfingers 7.12502
rthumb 18.1236 -81.9897
lclavicle -4.83295e-015 5.01931e-015
lhumerus -37.582 -6.21141 89.0255
lradius 32.7147
lwrist -15.1251
lhand -4.58257 -37.7711
lfingers 7.12502
lthumb 21.1944 -8.90972
rfemur -10.2958 9.55158 26.0317
rtibia 23.2735
rfoot -15.5071 -23.5165
rtoes 4.27289
lfemur -16.1409 -9.61971 -23.4033
ltibia 30.662
lfoot -19.4506 10.7342
ltoes -32.0341
198
root 10.0564 15.6913 -0.00983313 5.37926 -0.26286 0.290256
lowerback 10.6768 1.10421 0.768729
upperback -3.77365 1.56409 -0.335944
thorax -10.0284 0.69104 -1.0932
lowerneck -6.93707 -3.17166 -5.9559
upperneck 9.5301 -4.05869 4.27219
head 4.19286 -1.98897 2.04385
rclavicle 1.66327e-015 1.73937e-015
rhumerus -40.278 18.8692 -96.6041
rradius 39.6404
rwrist 21.9452
rhand -7.36188 -52.8464
rfingers 7.12502
rthumb 18.5227 -81.9845
lclavicle 1.66327e-015 1.73937e-015
lhumerus -37.6987 -6.10861 89.058
lradius 32.5586
lwrist -15.2228
lhand -4.15255 -37.928
lfingers 7.12502
lthumb 21.6075 -9.11354
rfemur -9.50422 10.3047 25.9354
rtibia 21.9734
rfoot -14.9398 -24.0308
rtoes 3.70309
lfemur -15.3756 -10.5695 -23.3939
ltibia 29.4719
lfoot -19.7949 10.764
ltoes -27.659
199
root 10.0548 15.7103 0.0223984 5.37382 -0.597346 0.282897
lowerback 10.2607 1.16611 0.73979
upperback -3.73669 1.64301 -0.300083
thorax -9.74202 0.735657 -1.04168
lowerneck -7.01105 -3.14643 -5.81978
upperneck 9.60987 -4.00926 4.00876
head 4.21907 -1.97308 1.94251
rclavicle -2.4289e-015 5.66536e-015
rhumerus -40.3288 19.1721 -96.7088
rradius 39.7278
rwrist 21.5097
rhand -6.85932 -52.8781
rfingers 7.12502
rthumb 19.0061 -81.9695
lclavicle -2.4289e-015 5.66536e-015
lhumerus -37.9394 -5.894 89.0265
lradius 32.6866
lwrist -15.2616
lhand -3.85553 -38.1048
lfingers 7.12502
lthumb 21.8927 -9.32335
rfemur -8.71254 11.295 25.9476
rtibia 20.7706
rfoot -14.4191 -24.6392
rtoes 3.08924
lfemur -14.5736 -11.6799 -23.3205
ltibia 28.3403
lfoot -20.2598 11.02
ltoes -22.3115
200
root 10.0617 15.7155 0.0392389 5.48342 -0.759862 0.291233
lowerback 9.91325 1.16134 0.839266
upperback -3.77342 1.64805 -0.300403
thorax -9.57466 0.733922 -1.09027
lowerneck -7.21334 -3.08294 -5.63061
upperneck 9.78118 -3.91491 3.79654
head 4.2925 -1.92947 1.84908
rclavicle 9.74355e-015 -6.36111e-015
rhumerus -40.3453 19.3697 -96.8093
rradius 39.6915
rwrist 21.2914
rhand -6.76269 -52.9123
rfingers 7.12502
rthumb 19.099 -81.9946
lclavicle 9.74355e-015 -6.36111e-015
lhumerus -38.1946 -5.56725 88.9455
lradius 32.8357
lwrist -15.3602
lhand -3.75062 -38.1176
lfingers 7.12502
lthumb 21.9934 -9.34796
rfemur -8.10684 11.9035 25.8892
rtibia 19.606
rfoot -14.1208 -24.9966
rtoes 3.50991
lfemur -13.9555 -12.4191 -23.4695
ltibia 27.3175
lfoot -19.7081 12.783
ltoes -27.9238
201
root 10.0629 15.7172 0.0535741 5.50823 -0.838958 0.236163
lowerback 9.65252 1.1484 0.878697
upperback -3.79545 1.63914 -0.242209
thorax -9.44606 0.730821 -1.04224
lowerneck -7.37187 -3.02186 -5.46019
upperneck 9.88994 -3.82763 3.62735
head 4.34145 -1.88817 1.7724
rclavicle -9.14099e-015 5.46658e-015
rhumerus -40.4627 19.4173 -96.8743
rradius 39.6777
rwrist 21.3702
rhand -6.87952 -53.0077
rfingers 7.12502
rthumb 18.9867 -82.101
lclavicle -9.14099e-015 5.46658e-015
lhumerus -38.2296 -5.15937 88.8856
lradius 32.6785
lwrist -15.6168
lhand -3.61598 -38.1275
lfingers 7.12502
lthumb 22.1227 -9.37315
rfemur -7.44986 12.5009 25.9807
rtibia 18.5212
rfoot -13.8853 -25.4524
rtoes 4.42295
lfemur -13.3395 -13.2068 -23.5277
ltibia 26.4257
lfoot -19.1616 14.4872
ltoes -32.5089
202
root 10.0578 15.7234 0.0704777 5.48683 -0.998566 0.0948672
lowerback 9.42316 1.16843 0.904898
upperback -3.80154 1.67634 -0.14003
thorax -9.31929 0.752347 -0.948606
lowerneck -7.1511 -2.9929 -5.51893
upperneck 9.68269 -3.79672 3.69611
head 4.24228 -1.87306 1.80874
rclavicle 1.24209e-014 -2.98177e-016
rhumerus -40.6184 19.3732 -96.8767
rradius 39.7097
rwrist 21.3843
rhand -6.86144 -52.9423
rfingers 7.12502
rthumb 19.0041 -82.0339
lclavicle 1.24209e-014 -2.98177e-016
lhumerus -38.2483 -4.86676 88.8681
lradius 32.5243
lwrist -15.8319
lhand -3.51767 -38.0537
lfingers 7.12502
lthumb 22.2171 -9.31056
rfemur -6.81573 13.1556 26.2134
rtibia 17.5642
rfoot -13.6987 -25.9728
rtoes 4.80493
lfemur -12.7682 -14.2708 -23.3808
ltibia 25.6643
lfoot -19.3175 15.5141
ltoes -31.5783
203
root 10.0476 15.7308 0.0858586 5.56277 -1.24637 -0.088878
lowerback 9.22793 1.21855 0.971671
upperback -3.85214 1.75747 -0.0633209
thorax -9.25865 0.790988 -0.913981
lowerneck -6.82793 -2.984 -5.78057
upperneck 9.36655 -3.80158 4.02743
head 4.10346 -1.86986 1.95803
rclavicle -2.84169e-014 1.98785e-016
rhumerus -40.6281 19.2269 -96.8236
rradius 39.6457
rwrist 21.1644
rhand -6.57312 -52.7738
rfingers 7.12502
rthumb 19.2813 -81.838
lclavicle -2.84169e-014 1.98785e-016
lhumerus -38.3499 -4.73025 88.8322
lradius 32.4467
lwrist -15.8843
lhand -3.50832 -37.8569
lfingers 7.12502
lthumb 22.226 -9.11487
rfemur -6.34275 13.9643 26.4703
rtibia 16.6504
rfoot -13.4617 -26.5014
rtoes 4.91752
lfemur -12.3906 -15.2141 -23.1566
ltibia 25.0277
lfoot -19.3623 16.5957
ltoes -31.5792
